<?xml version="1.0" encoding="UTF-8"?>
<svg id="Layer_1" data-name="Layer 1" xmlns="http://www.w3.org/2000/svg" xmlns:xlink="http://www.w3.org/1999/xlink" viewBox="0 0 257.28 203">
  <defs>
    <style>
      .cls-1 {
        fill: url(#linear-gradient-12);
      }

      .cls-1, .cls-2, .cls-3, .cls-4, .cls-5, .cls-6, .cls-7, .cls-8, .cls-9, .cls-10, .cls-11, .cls-12, .cls-13, .cls-14 {
        stroke-width: 0px;
      }

      .cls-2 {
        fill: url(#linear-gradient);
      }

      .cls-3 {
        fill: url(#linear-gradient-6);
      }

      .cls-4 {
        fill: url(#linear-gradient-11);
      }

      .cls-5 {
        fill: url(#linear-gradient-5);
      }

      .cls-6 {
        fill: url(#linear-gradient-13);
      }

      .cls-7 {
        fill: url(#linear-gradient-14);
      }

      .cls-8 {
        fill: url(#linear-gradient-2);
      }

      .cls-9 {
        fill: url(#linear-gradient-7);
      }

      .cls-10 {
        fill: url(#linear-gradient-3);
      }

      .cls-11 {
        fill: url(#linear-gradient-9);
      }

      .cls-12 {
        fill: url(#linear-gradient-8);
      }

      .cls-13 {
        fill: url(#linear-gradient-10);
      }

      .cls-14 {
        fill: url(#linear-gradient-4);
      }
    </style>
    <linearGradient id="linear-gradient" x1="64.21" y1="80.72" x2="49.01" y2="7.14" gradientUnits="userSpaceOnUse">
      <stop offset="0" stop-color="#656565"/>
      <stop offset="0" stop-color="#656565"/>
      <stop offset=".5" stop-color="#717171"/>
      <stop offset="1" stop-color="#757575"/>
    </linearGradient>
    <linearGradient id="linear-gradient-2" x1="192.48" y1="127.23" x2="176.06" y2="47.74" gradientUnits="userSpaceOnUse">
      <stop offset="0" stop-color="#e37e24"/>
      <stop offset=".2" stop-color="#e59223"/>
      <stop offset=".47" stop-color="#e7a622"/>
      <stop offset=".74" stop-color="#e8b222"/>
      <stop offset="1" stop-color="#e9b722"/>
    </linearGradient>
    <linearGradient id="linear-gradient-3" x1="159.54" y1="-23.17" x2="252.55" y2="112.85" gradientUnits="userSpaceOnUse">
      <stop offset="0" stop-color="#757575"/>
      <stop offset="1" stop-color="#656565"/>
    </linearGradient>
    <linearGradient id="linear-gradient-4" x1="120.18" y1="114.16" x2="257.24" y2="114.16" gradientUnits="userSpaceOnUse">
      <stop offset="0" stop-color="#5b5c5c"/>
      <stop offset="0" stop-color="#5b5c5c"/>
      <stop offset="1" stop-color="#5b5c5c"/>
    </linearGradient>
    <linearGradient id="linear-gradient-5" x1="24.86" y1="157.78" x2="5.9" y2="65.99" gradientUnits="userSpaceOnUse">
      <stop offset="0" stop-color="#4f5050"/>
      <stop offset=".13" stop-color="#555656"/>
      <stop offset=".66" stop-color="#6c6c6c"/>
      <stop offset="1" stop-color="#757575"/>
    </linearGradient>
    <linearGradient id="linear-gradient-6" x1="145.33" y1="111.03" x2="130.81" y2="22.77" gradientUnits="userSpaceOnUse">
      <stop offset="0" stop-color="#e37e24"/>
      <stop offset="1" stop-color="#e9b722"/>
    </linearGradient>
    <linearGradient id="linear-gradient-7" x1="133.31" y1="42.28" x2="128.19" y2="17.52" xlink:href="#linear-gradient-2"/>
    <linearGradient id="linear-gradient-8" x1="17.36" y1="202.69" x2="17.36" y2="175.01" gradientUnits="userSpaceOnUse">
      <stop offset="0" stop-color="#f89928"/>
      <stop offset=".48" stop-color="#eca427"/>
      <stop offset="1" stop-color="#e7aa27"/>
    </linearGradient>
    <linearGradient id="linear-gradient-9" x1="57.03" x2="57.03" xlink:href="#linear-gradient-8"/>
    <linearGradient id="linear-gradient-10" x1="93.07" x2="93.07" xlink:href="#linear-gradient-8"/>
    <linearGradient id="linear-gradient-11" x1="130.38" x2="130.38" xlink:href="#linear-gradient-8"/>
    <linearGradient id="linear-gradient-12" x1="159.47" x2="159.47" xlink:href="#linear-gradient-8"/>
    <linearGradient id="linear-gradient-13" x1="192.11" x2="192.11" xlink:href="#linear-gradient-8"/>
    <linearGradient id="linear-gradient-14" x1="233.79" y1="203" x2="233.79" y2="174.71" xlink:href="#linear-gradient-8"/>
  </defs>
  <g>
    <path class="cls-2" d="M21.5,1.67c7.13-.1,14.27.03,21.41-.05,10.64-.12,21.33-.25,31.68,3.17,18.06,5.96,27.2,18.91,29.27,37.28.93,8.31-.02,16.52-3.32,24.29-4.85,11.43-13.5,18.7-25.21,22.49-7.52,2.44-15.28,3.13-23.12,3.19-7.29.06-14.58-.05-21.87.02-2.13.02-2.93-.72-2.88-2.9.07-3.6-.11-7.2-.26-10.8-.07-1.92.7-2.65,2.66-2.64,8.12.07,16.24.15,24.35-.02,6.11-.13,12.18-.95,17.63-4.02,8.41-4.74,12.19-12.35,12.93-21.67.43-5.4-.39-10.65-2.58-15.64-4.04-9.21-11.61-13.61-21.11-15.27-4.75-.83-9.55-.96-14.37-.92-9.77.08-19.54.04-29.31.1-1.05,0-1.84-.29-2.62-1C10.13,13.1,5.73,8.68,1.34,4.26.78,3.69-.12,3.14.33,2.2c.45-.93,1.42-.54,2.23-.54,6.31.02,12.62.01,18.94.01Z"/>
    <path class="cls-8" d="M188.71,46.95c-.35,3.69-1.87,6.42-2.25,9.5-.88,7.09.41,13.81,3.07,20.29,3.01,7.36,5.86,14.72,5.61,22.86-.06,1.74-.31,3.48-.26,5.24,1.51-3.83,2.08-7.77,1.17-11.82-1.02-4.54-2.16-9.12-.45-13.66,1.78-4.73,4.21-9.11,8.8-12.53-.19,2.39-1.25,3.96-1.86,5.64-2.26,6.29-1.95,12.32,1.39,18.15,1.42,2.48,2.87,4.95,3.3,7.85.07.49.2,1.05.84,1.07.68.02.7-.59.84-1.05.71-2.29.05-4.53-.24-6.78-.46-3.55.28-6.82,2.48-9.68.44-.58.99-1.54,1.84-1.14.74.35-.02,1.15-.1,1.73-.65,4.88,1.27,9.03,3.59,13.09,1.35,2.35,1.92,4.89,1.86,7.6-.01.58-.28,1.51.55,1.63.74.1.84-.83,1.11-1.39,1.27-2.72.93-5.57.64-8.42-.05-.52-.54-1.25.21-1.48.62-.19.91.55,1.22,1.01,4.03,6.03,3.47,17.15-2.25,22.29-10.7,9.6-23.07,12.46-36.91,10.71-9.48-1.2-17.58-5.28-24.31-12-3.5-3.5-6.52-7.39-8.27-12.1-1.42-3.81-.23-7.08,2.1-10.15.99.52.49,1.2.42,1.76-.35,2.67-.06,5.27.83,7.8.18.51.44,1.19,1.15,1.06.63-.12.52-.81.53-1.27.09-3.69,1.67-6.89,3.31-10.07,1.5-2.91,1.48-6.04,1.33-9.2-.03-.59-.56-1.43.22-1.73.78-.31,1.26.52,1.69,1.05,2.15,2.62,2.82,5.7,2.59,9-.13,1.85-.36,3.69-.53,5.54-.08.86-.04,1.71.28,2.53.13.33.23.74.65.76.42.02.62-.35.69-.69.8-3.69,3.02-6.74,4.49-10.13,2.62-6.03,1.36-11.87-1.11-17.61-.17-.39-.34-.78-.5-1.17-.02-.05.02-.13.04-.2,2.91.73,5.36,3.88,8.34,10.63,1.94,4.4,1.16,9.03,1.27,13.68,1.68-1.4,2.29-3.32,2.79-5.27,1.12-4.38.1-8.69-.75-12.93-1.76-8.79-.79-17.03,4.09-24.68,1.15-1.81,2.55-3.38,4.47-5.3Z"/>
    <path class="cls-10" d="M257.24,72.27c0,.74-.09,1.5.01,2.23-.47,7.32-.01,10.49-6.51,17.26-6,7.02-13.04,12.72-20.76,17.68-.55.35-1.2,1.32-1.88.59-.53-.57.37-1.15.67-1.71,3.51-6.47,5.53-13.45,6.67-20.67,1.92-12.23,1.73-24.42-1.47-36.43-2.27-8.53-6.21-16.22-12.57-22.47-7.58-7.44-16.87-11.24-27.34-12.06-8.22-.64-16.31.15-24.03,3.43-4.85,2.06-9.14,4.94-12.88,8.61-1.04,1.02-1.78,1.01-2.83.17-4.17-3.34-8.84-5.7-14.05-6.96-1.94-.47-1.52-1.39-.5-2.44,4.57-4.74,9.71-8.74,15.58-11.73C170.48.04,186.46-1.4,203.04,1.17c11.28,1.75,21.43,6.03,30.21,13.25,10.04,8.24,16.54,18.92,20.27,31.29,2.61,8.65,4.02,17.49,3.72,26.56Z"/>
    <path class="cls-14" d="M190.95,148.44c-13.85-.31-26.01-2.37-37.13-8.74-11.83-6.78-20.54-16.43-26.23-28.8-4.31-9.39-6.39-19.35-7.3-29.6-.04-.49-.37-1.16.3-1.38.65-.21.82.5,1.07.92,6.51,11.03,14.99,20.21,25.74,27.2,2.38,1.55,3.55,4.04,5.17,6.16,7.13,9.31,16.69,14.54,28.02,16.43,10,1.66,19.9.94,29.33-3.19,4.78-2.09,9.1-4.92,12.63-8.82,1.36-1.5,3.06-2.41,4.76-3.33,11.11-5.99,20.66-13.81,28.16-24.04.34-.46.63-1.25,1.3-1.02.8.28.29,1.06.2,1.58-3.35,19.47-12.2,35.58-29.12,46.42-8.17,5.24-17.3,8.25-26.99,9.33-3.72.41-7.46.65-9.94.86Z"/>
    <path class="cls-5" d="M.05,77.33c0-21.49,0-42.98,0-64.46,0-.38-.03-.75,0-1.13.06-.64-.21-1.5.6-1.77.64-.21,1.04.47,1.45.89,3.52,3.6,7,7.24,10.56,10.79,1.69,1.68,3.35,3.5,5.86,4.02,1.2.25,1.18,1.11,1.17,2.08-.05,5.4-.1,10.8-.07,16.2.05,8.03.45,16.06.21,24.08-.36,11.64-.31,23.29-.14,34.92.19,13.07.18,26.14.25,39.21.02,3.08-.08,3.16-3.15,3.17-4.66.01-9.32-.08-13.98.05C.6,145.43,0,144.58,0,142.47c.06-21.71.03-43.43.03-65.14h.01Z"/>
    <path class="cls-3" d="M120.98,69.41c.63-9,1.85-17.88,4.91-26.47,1.02-2.87,3.09-3.99,5.63-4.76,5.76-1.75,11.59-3,17.67-2.13,2.18.31,2.32.67,1.19,2.63-3.79,6.56-6.16,13.59-7.43,21.07-1.7,9.99-1.68,19.95.16,29.89.66,3.53,1.7,7,2.57,10.49.15.61.64,1.31-.01,1.79-.65.47-1.23-.14-1.71-.53-6.66-5.35-12.75-11.23-17.42-18.47-1.29-2-2.65-3.93-3.72-6.07-1.17-2.35-2.29-4.68-1.83-7.44Z"/>
    <path class="cls-9" d="M146.66,33.02c-8.51-.25-16.52,1.61-24,5.69-3.32,1.81-6.21,4.18-8.73,7-.29.32-.56.85-1.05.71-.68-.19-.47-.86-.47-1.35-.04-11.98,11.49-22.03,23.37-20.56,5.99.74,11.21,3.13,16.01,6.62.48.35,1.38.71,1.02,1.51-.27.59-1.08.35-1.66.36-1.5.02-3,0-4.5,0Z"/>
  </g>
  <g>
    <polygon class="cls-12" points="25.12 187.23 9.61 187.23 9.61 175.01 5.18 175.01 5.18 202.69 9.61 202.69 9.61 190.22 25.12 190.22 25.12 202.69 29.53 202.69 29.53 175.01 25.12 175.01 25.12 187.23"/>
    <polygon class="cls-11" points="52.24 190.34 63.5 190.34 63.5 187.12 52.24 187.12 52.24 178.35 66.23 178.35 66.23 175.01 47.81 175.01 47.81 202.69 66.23 202.69 66.25 199.36 52.24 199.36 52.24 190.34"/>
    <path class="cls-13" d="M90.84,175.01l-11.84,27.68h3.39c.37,0,.69-.1.95-.3.26-.2.44-.42.54-.66l2.63-6.42h13.1l2.63,6.42c.11.28.29.51.54.69.25.18.57.27.95.27h3.39l-11.84-27.68h-4.45ZM87.74,192.38l4.39-10.7c.15-.37.31-.8.47-1.27.16-.48.31-.99.47-1.54.32,1.12.63,2.04.95,2.78l4.41,10.74h-10.68Z"/>
    <polygon class="cls-4" points="118.73 178.45 128.21 178.45 128.21 202.69 132.6 202.69 132.6 178.45 142.04 178.45 142.04 175.01 118.73 175.01 118.73 178.45"/>
    <rect class="cls-1" x="157.25" y="175.01" width="4.43" height="27.68"/>
    <path class="cls-6" d="M200.44,193.86c0,.31.01.64.03.99s.05.72.09,1.09l-16.83-20.24c-.23-.3-.45-.48-.64-.57-.19-.08-.48-.13-.87-.13h-2.28v27.68h3.87v-18.98c0-.3-.01-.61-.03-.94-.02-.33-.05-.67-.07-1.02l16.79,20.22c.23.26.47.44.69.56s.51.17.86.17h2.24v-27.68h-3.85v18.85Z"/>
    <path class="cls-7" d="M237.51,189.22v2.33c0,.23.09.42.26.58.17.15.4.23.67.23h4.39v5.8c-.48.23-.97.44-1.46.64s-1,.35-1.52.48c-.52.13-1.07.23-1.65.3-.57.07-1.19.11-1.85.11-1.7,0-3.23-.24-4.61-.73-1.37-.49-2.54-1.2-3.5-2.13-.96-.93-1.7-2.07-2.23-3.41-.52-1.34-.79-2.86-.79-4.56s.25-3.08.75-4.38c.5-1.3,1.21-2.42,2.13-3.34s2.04-1.64,3.35-2.13,2.78-.74,4.41-.74c1.09,0,2.04.08,2.84.23.8.15,1.5.34,2.1.56.6.22,1.12.46,1.55.71.44.26.83.48,1.19.67.37.22.72.29,1.04.21.32-.08.57-.26.77-.56l1.26-1.85c-.63-.54-1.32-1.02-2.06-1.46-.74-.43-1.54-.8-2.41-1.11-.87-.31-1.81-.55-2.83-.71-1.01-.17-2.12-.25-3.3-.25-2.35,0-4.46.34-6.35,1.03-1.88.69-3.49,1.65-4.81,2.89-1.32,1.24-2.34,2.73-3.05,4.47-.71,1.74-1.07,3.66-1.07,5.75s.37,3.99,1.11,5.72c.74,1.73,1.79,3.23,3.16,4.47,1.37,1.25,3.02,2.22,4.96,2.91,1.94.69,4.11,1.04,6.51,1.04,2,0,3.85-.25,5.55-.74,1.7-.49,3.3-1.24,4.8-2.25v-10.79h-9.32Z"/>
  </g>
</svg>